<svg width="360" height="190" viewBox="0 0 360 190" fill="none" xmlns="http://www.w3.org/2000/svg">
<g filter="url(#filter0_d_1_41)">
<rect width="336" height="166" transform="translate(12 10)" fill="#282A36" style="fill:#282A36;fill:color(display-p3 0.1569 0.1647 0.2118);fill-opacity:1;"/>
<rect width="304" height="96" transform="translate(28 26)" fill="#282A36" style="fill:#282A36;fill:color(display-p3 0.1569 0.1647 0.2118);fill-opacity:1;"/>
<path d="M37.584 52.56L42.832 38.64H44.016L38.768 52.56H37.584ZM47.1778 52.56L52.4258 38.64H53.6098L48.3618 52.56H47.1778ZM66.4773 50V38.608H67.7893V46.32H67.8533L72.0453 42.224H73.5493L67.7893 47.888V50H66.4773ZM72.4933 50L69.4533 45.856L70.2533 45.008L73.9653 50H72.4933ZM79.431 50V43.296H75.815V42.224H80.743V50H79.431ZM79.943 40.592C79.6443 40.592 79.3937 40.5013 79.191 40.32C78.9883 40.128 78.887 39.8773 78.887 39.568C78.887 39.2587 78.9883 39.0133 79.191 38.832C79.3937 38.64 79.6443 38.544 79.943 38.544C80.2417 38.544 80.4923 38.64 80.695 38.832C80.8977 39.0133 80.999 39.2587 80.999 39.568C80.999 39.8773 80.8977 40.128 80.695 40.32C80.4923 40.5013 80.2417 40.592 79.943 40.592ZM85.4568 50V42.224H86.5448L86.6568 43.552H86.7208C87.1261 43.1147 87.5634 42.752 88.0328 42.464C88.5021 42.176 89.0408 42.032 89.6488 42.032C90.5661 42.032 91.2434 42.2987 91.6808 42.832C92.1181 43.3653 92.3368 44.144 92.3368 45.168V50H91.0248V45.344C91.0248 44.608 90.8861 44.064 90.6088 43.712C90.3314 43.3493 89.8728 43.168 89.2328 43.168C88.7741 43.168 88.3634 43.2853 88.0008 43.52C87.6381 43.7547 87.2274 44.1067 86.7688 44.576V50H85.4568ZM97.8985 50.192C96.8852 50.192 96.0692 49.84 95.4505 49.136C94.8318 48.4213 94.5225 47.4187 94.5225 46.128C94.5225 45.2853 94.6878 44.56 95.0185 43.952C95.3598 43.3333 95.7972 42.8587 96.3305 42.528C96.8745 42.1973 97.4505 42.032 98.0585 42.032C98.5172 42.032 98.9332 42.1227 99.3065 42.304C99.6905 42.4747 100.048 42.72 100.379 43.04H100.427L100.363 41.6V38.608H101.675V50H100.587L100.475 48.976H100.427C100.117 49.3067 99.7385 49.5947 99.2905 49.84C98.8532 50.0747 98.3892 50.192 97.8985 50.192ZM98.1705 49.088C98.5545 49.088 98.9278 48.992 99.2905 48.8C99.6532 48.5973 100.011 48.304 100.363 47.92V44.048C100.011 43.7173 99.6638 43.4827 99.3225 43.344C98.9918 43.2053 98.6558 43.136 98.3145 43.136C97.8665 43.136 97.4558 43.264 97.0825 43.52C96.7198 43.7653 96.4265 44.112 96.2025 44.56C95.9892 44.9973 95.8825 45.5147 95.8825 46.112C95.8825 47.04 96.0852 47.7707 96.4905 48.304C96.8958 48.8267 97.4558 49.088 98.1705 49.088ZM104.516 43.504V42.512H111.396V43.504H104.516ZM104.516 46.928V45.936H111.396V46.928H104.516Z" fill="#6272A4" style="fill:#6272A4;fill:color(display-p3 0.3843 0.4471 0.6431);fill-opacity:1;"/>
<path d="M37.488 70V58.608H38.8V61.712L38.72 63.552H38.768C39.1627 63.1253 39.5947 62.768 40.064 62.48C40.5333 62.1813 41.072 62.032 41.68 62.032C42.5973 62.032 43.2747 62.2987 43.712 62.832C44.1493 63.3653 44.368 64.144 44.368 65.168V70H43.056V65.344C43.056 64.608 42.9173 64.064 42.64 63.712C42.3627 63.3493 41.904 63.168 41.264 63.168C40.8053 63.168 40.3947 63.2853 40.032 63.52C39.6693 63.7547 39.2587 64.1067 38.8 64.576V70H37.488ZM49.5298 70.192C49.0498 70.192 48.6071 70.1067 48.2018 69.936C47.7964 69.7547 47.4764 69.4987 47.2418 69.168C47.0071 68.8373 46.8898 68.4427 46.8898 67.984C46.8898 67.1093 47.3271 66.448 48.2018 66C49.0764 65.5413 50.5164 65.232 52.5218 65.072C52.5111 64.72 52.4364 64.3947 52.2978 64.096C52.1698 63.7973 51.9564 63.5627 51.6578 63.392C51.3591 63.2107 50.9591 63.12 50.4578 63.12C50.1271 63.12 49.7964 63.168 49.4658 63.264C49.1458 63.3493 48.8364 63.4667 48.5378 63.616C48.2498 63.7547 47.9831 63.8987 47.7378 64.048L47.2258 63.152C47.4818 62.9813 47.7911 62.8107 48.1538 62.64C48.5271 62.4587 48.9271 62.3147 49.3538 62.208C49.7804 62.0907 50.2231 62.032 50.6818 62.032C51.3964 62.032 51.9831 62.1653 52.4418 62.432C52.9111 62.6987 53.2578 63.072 53.4818 63.552C53.7164 64.0213 53.8338 64.5813 53.8338 65.232V70H52.7618L52.6498 68.944H52.6018C52.1751 69.2853 51.6951 69.5787 51.1618 69.824C50.6284 70.0693 50.0844 70.192 49.5298 70.192ZM49.8818 69.136C50.3298 69.136 50.7724 69.0347 51.2098 68.832C51.6471 68.6293 52.0844 68.3467 52.5218 67.984V65.936C51.4124 66.032 50.5378 66.1653 49.8978 66.336C49.2684 66.5067 48.8204 66.7253 48.5538 66.992C48.2978 67.248 48.1698 67.5467 48.1698 67.888C48.1698 68.176 48.2498 68.416 48.4098 68.608C48.5698 68.7893 48.7778 68.9227 49.0338 69.008C49.3004 69.0933 49.5831 69.136 49.8818 69.136ZM61.6835 70.192C60.8622 70.192 60.2328 69.9573 59.7955 69.488C59.3582 69.008 59.1395 68.3093 59.1395 67.392V59.68H56.4835V58.608H60.4515V67.488C60.4515 68.0533 60.5902 68.464 60.8675 68.72C61.1448 68.976 61.5128 69.104 61.9715 69.104C62.1955 69.104 62.4248 69.0773 62.6595 69.024C62.8942 68.96 63.1555 68.864 63.4435 68.736L63.7795 69.728C63.4275 69.856 63.0968 69.9627 62.7875 70.048C62.4782 70.144 62.1102 70.192 61.6835 70.192ZM68.6533 70V61.568C68.6533 60.9387 68.7653 60.3893 68.9893 59.92C69.2239 59.44 69.5706 59.072 70.0293 58.816C70.4879 58.5493 71.0746 58.416 71.7893 58.416C72.1733 58.416 72.5466 58.4533 72.9093 58.528C73.2826 58.592 73.6559 58.704 74.0293 58.864L73.7253 59.856C73.4053 59.7067 73.1066 59.6107 72.8293 59.568C72.5626 59.5147 72.2586 59.488 71.9173 59.488C71.2239 59.488 70.7226 59.6693 70.4133 60.032C70.1039 60.3947 69.9493 60.8907 69.9493 61.52V70H68.6533ZM66.4293 63.296V62.304L68.7013 62.224H73.2133V63.296H66.4293ZM80.263 70V62.96C80.2737 62.6827 80.2843 62.384 80.295 62.064C80.3163 61.7333 80.3323 61.4293 80.343 61.152H80.263C80.103 61.3973 79.9323 61.648 79.751 61.904C79.5697 62.1493 79.3937 62.3947 79.223 62.64L76.455 66.128H83.095V67.184H74.999V66.304L80.103 59.792H81.511V70H80.263ZM145.403 70V61.568C145.403 60.9387 145.515 60.3893 145.739 59.92C145.974 59.44 146.321 59.072 146.779 58.816C147.238 58.5493 147.825 58.416 148.539 58.416C148.923 58.416 149.297 58.4533 149.659 58.528C150.033 58.592 150.406 58.704 150.779 58.864L150.475 59.856C150.155 59.7067 149.857 59.6107 149.579 59.568C149.313 59.5147 149.009 59.488 148.667 59.488C147.974 59.488 147.473 59.6693 147.163 60.032C146.854 60.3947 146.699 60.8907 146.699 61.52V70H145.403ZM143.179 63.296V62.304L145.451 62.224H149.963V63.296H143.179ZM157.621 70.192C156.8 70.192 156.17 69.9573 155.733 69.488C155.296 69.008 155.077 68.3093 155.077 67.392V59.68H152.421V58.608H156.389V67.488C156.389 68.0533 156.528 68.464 156.805 68.72C157.082 68.976 157.45 69.104 157.909 69.104C158.133 69.104 158.362 69.0773 158.597 69.024C158.832 68.96 159.093 68.864 159.381 68.736L159.717 69.728C159.365 69.856 159.034 69.9627 158.725 70.048C158.416 70.144 158.048 70.192 157.621 70.192ZM165.519 70.192C164.836 70.192 164.201 70.032 163.615 69.712C163.039 69.392 162.569 68.928 162.207 68.32C161.855 67.712 161.679 66.9813 161.679 66.128C161.679 65.2533 161.855 64.512 162.207 63.904C162.569 63.296 163.039 62.832 163.615 62.512C164.201 62.192 164.836 62.032 165.519 62.032C166.201 62.032 166.831 62.192 167.407 62.512C167.993 62.832 168.463 63.296 168.815 63.904C169.177 64.512 169.359 65.2533 169.359 66.128C169.359 66.9813 169.177 67.712 168.815 68.32C168.463 68.928 167.993 69.392 167.407 69.712C166.831 70.032 166.201 70.192 165.519 70.192ZM165.519 69.104C166.02 69.104 166.457 68.9813 166.831 68.736C167.204 68.48 167.492 68.128 167.695 67.68C167.897 67.232 167.999 66.7147 167.999 66.128C167.999 65.5307 167.897 65.008 167.695 64.56C167.492 64.1013 167.204 63.7493 166.831 63.504C166.457 63.248 166.02 63.12 165.519 63.12C165.017 63.12 164.58 63.248 164.207 63.504C163.844 63.7493 163.556 64.1013 163.343 64.56C163.14 65.008 163.039 65.5307 163.039 66.128C163.039 66.7147 163.14 67.232 163.343 67.68C163.556 68.128 163.844 68.48 164.207 68.736C164.58 68.9813 165.017 69.104 165.519 69.104ZM174.249 70.192C173.769 70.192 173.326 70.1067 172.921 69.936C172.515 69.7547 172.195 69.4987 171.961 69.168C171.726 68.8373 171.609 68.4427 171.609 67.984C171.609 67.1093 172.046 66.448 172.921 66C173.795 65.5413 175.235 65.232 177.241 65.072C177.23 64.72 177.155 64.3947 177.017 64.096C176.889 63.7973 176.675 63.5627 176.377 63.392C176.078 63.2107 175.678 63.12 175.177 63.12C174.846 63.12 174.515 63.168 174.185 63.264C173.865 63.3493 173.555 63.4667 173.257 63.616C172.969 63.7547 172.702 63.8987 172.457 64.048L171.945 63.152C172.201 62.9813 172.51 62.8107 172.873 62.64C173.246 62.4587 173.646 62.3147 174.073 62.208C174.499 62.0907 174.942 62.032 175.401 62.032C176.115 62.032 176.702 62.1653 177.161 62.432C177.63 62.6987 177.977 63.072 178.201 63.552C178.435 64.0213 178.553 64.5813 178.553 65.232V70H177.481L177.369 68.944H177.321C176.894 69.2853 176.414 69.5787 175.881 69.824C175.347 70.0693 174.803 70.192 174.249 70.192ZM174.601 69.136C175.049 69.136 175.491 69.0347 175.929 68.832C176.366 68.6293 176.803 68.3467 177.241 67.984V65.936C176.131 66.032 175.257 66.1653 174.617 66.336C173.987 66.5067 173.539 66.7253 173.273 66.992C173.017 67.248 172.889 67.5467 172.889 67.888C172.889 68.176 172.969 68.416 173.129 68.608C173.289 68.7893 173.497 68.9227 173.753 69.008C174.019 69.0933 174.302 69.136 174.601 69.136ZM186.21 70.192C185.453 70.192 184.856 70.0587 184.418 69.792C183.981 69.5147 183.666 69.136 183.474 68.656C183.293 68.176 183.202 67.616 183.202 66.976V63.296H181.01V62.304L183.25 62.224L183.426 59.728H184.514V62.224H188.338V63.296H184.514V66.992C184.514 67.4507 184.573 67.84 184.69 68.16C184.808 68.48 185.01 68.72 185.298 68.88C185.586 69.04 185.981 69.12 186.482 69.12C186.856 69.12 187.192 69.088 187.49 69.024C187.789 68.96 188.077 68.8747 188.354 68.768L188.642 69.728C188.29 69.856 187.917 69.9627 187.522 70.048C187.138 70.144 186.701 70.192 186.21 70.192ZM190.668 70V69.216C191.82 68.2027 192.791 67.312 193.58 66.544C194.38 65.7653 194.988 65.0667 195.404 64.448C195.82 63.8293 196.028 63.2373 196.028 62.672C196.028 62.0853 195.847 61.6053 195.484 61.232C195.121 60.8587 194.561 60.672 193.804 60.672C193.324 60.672 192.876 60.7893 192.46 61.024C192.055 61.2587 191.687 61.552 191.356 61.904L190.604 61.152C191.063 60.6827 191.553 60.3093 192.076 60.032C192.609 59.744 193.239 59.6 193.964 59.6C194.647 59.6 195.233 59.728 195.724 59.984C196.225 60.2293 196.609 60.576 196.876 61.024C197.153 61.472 197.292 62 197.292 62.608C197.292 63.248 197.095 63.8933 196.7 64.544C196.305 65.1947 195.751 65.8827 195.036 66.608C194.332 67.3227 193.516 68.1067 192.588 68.96C192.908 68.928 193.228 68.9067 193.548 68.896C193.868 68.8747 194.183 68.864 194.492 68.864H197.852V70H190.668Z" fill="#FF79C6" style="fill:#FF79C6;fill:color(display-p3 1.0000 0.4745 0.7765);fill-opacity:1;"/>
<path d="M94.4905 70V62.224H95.5465L95.6585 63.248H95.6905C95.8932 62.8853 96.1278 62.592 96.3945 62.368C96.6612 62.144 97.0185 62.032 97.4665 62.032C97.8505 62.032 98.1652 62.144 98.4105 62.368C98.6558 62.592 98.8318 62.928 98.9385 63.376C99.1625 62.96 99.4078 62.6347 99.6745 62.4C99.9518 62.1547 100.315 62.032 100.763 62.032C101.307 62.032 101.728 62.24 102.027 62.656C102.336 63.0613 102.491 63.6533 102.491 64.432V70H101.179V64.528C101.179 63.6213 100.901 63.168 100.347 63.168C100.08 63.168 99.8558 63.2693 99.6745 63.472C99.5038 63.664 99.3118 63.9627 99.0985 64.368V70H97.8825V64.528C97.8825 64.08 97.8185 63.744 97.6905 63.52C97.5732 63.2853 97.3705 63.168 97.0825 63.168C96.8158 63.168 96.5812 63.2693 96.3785 63.472C96.1865 63.664 95.9945 63.9627 95.8025 64.368V70H94.4905ZM107.092 70.192C106.612 70.192 106.17 70.1067 105.764 69.936C105.359 69.7547 105.039 69.4987 104.804 69.168C104.57 68.8373 104.452 68.4427 104.452 67.984C104.452 67.1093 104.89 66.448 105.764 66C106.639 65.5413 108.079 65.232 110.084 65.072C110.074 64.72 109.999 64.3947 109.86 64.096C109.732 63.7973 109.519 63.5627 109.22 63.392C108.922 63.2107 108.522 63.12 108.02 63.12C107.69 63.12 107.359 63.168 107.028 63.264C106.708 63.3493 106.399 63.4667 106.1 63.616C105.812 63.7547 105.546 63.8987 105.3 64.048L104.788 63.152C105.044 62.9813 105.354 62.8107 105.716 62.64C106.09 62.4587 106.49 62.3147 106.916 62.208C107.343 62.0907 107.786 62.032 108.244 62.032C108.959 62.032 109.546 62.1653 110.004 62.432C110.474 62.6987 110.82 63.072 111.044 63.552C111.279 64.0213 111.396 64.5813 111.396 65.232V70H110.324L110.212 68.944H110.164C109.738 69.2853 109.258 69.5787 108.724 69.824C108.191 70.0693 107.647 70.192 107.092 70.192ZM107.444 69.136C107.892 69.136 108.335 69.0347 108.772 68.832C109.21 68.6293 109.647 68.3467 110.084 67.984V65.936C108.975 66.032 108.1 66.1653 107.46 66.336C106.831 66.5067 106.383 66.7253 106.116 66.992C105.86 67.248 105.732 67.5467 105.732 67.888C105.732 68.176 105.812 68.416 105.972 68.608C106.132 68.7893 106.34 68.9227 106.596 69.008C106.863 69.0933 107.146 69.136 107.444 69.136ZM117.806 70V63.296H114.19V62.224H119.118V70H117.806ZM118.318 60.592C118.019 60.592 117.769 60.5013 117.566 60.32C117.363 60.128 117.262 59.8773 117.262 59.568C117.262 59.2587 117.363 59.0133 117.566 58.832C117.769 58.64 118.019 58.544 118.318 58.544C118.617 58.544 118.867 58.64 119.07 58.832C119.273 59.0133 119.374 59.2587 119.374 59.568C119.374 59.8773 119.273 60.128 119.07 60.32C118.867 60.5013 118.617 60.592 118.318 60.592ZM123.832 70V62.224H124.92L125.032 63.552H125.096C125.501 63.1147 125.938 62.752 126.408 62.464C126.877 62.176 127.416 62.032 128.024 62.032C128.941 62.032 129.618 62.2987 130.056 62.832C130.493 63.3653 130.712 64.144 130.712 65.168V70H129.4V65.344C129.4 64.608 129.261 64.064 128.984 63.712C128.706 63.3493 128.248 63.168 127.608 63.168C127.149 63.168 126.738 63.2853 126.376 63.52C126.013 63.7547 125.602 64.1067 125.144 64.576V70H123.832Z" fill="#50FA7B" style="fill:#50FA7B;fill:color(display-p3 0.3137 0.9804 0.4824);fill-opacity:1;"/>
<path d="M138.866 72.816C137.756 71.9413 136.876 70.9013 136.226 69.696C135.586 68.48 135.266 67.0987 135.266 65.552C135.266 64.0053 135.586 62.624 136.226 61.408C136.876 60.192 137.756 59.152 138.866 58.288L139.586 58.96C138.519 59.856 137.73 60.8427 137.218 61.92C136.706 62.9973 136.45 64.208 136.45 65.552C136.45 66.896 136.706 68.1067 137.218 69.184C137.73 70.2507 138.519 71.2373 139.586 72.144L138.866 72.816ZM259.328 72.816L258.608 72.144C259.675 71.2373 260.464 70.2507 260.976 69.184C261.488 68.1067 261.744 66.896 261.744 65.552C261.744 64.208 261.488 62.9973 260.976 61.92C260.464 60.8427 259.675 59.856 258.608 58.96L259.328 58.288C260.448 59.152 261.328 60.192 261.968 61.408C262.608 62.624 262.928 64.0053 262.928 65.552C262.928 67.0987 262.608 68.48 261.968 69.696C261.328 70.9013 260.448 71.9413 259.328 72.816ZM282.9 72.432C281.897 72.432 281.15 72.2827 280.66 71.984C280.18 71.6853 279.94 71.1253 279.94 70.304C279.94 69.9093 279.95 69.5467 279.972 69.216C279.993 68.8853 280.014 68.56 280.036 68.24C280.068 67.9093 280.084 67.568 280.084 67.216C280.084 67.0027 280.02 66.8053 279.892 66.624C279.774 66.432 279.545 66.2773 279.204 66.16C278.873 66.032 278.393 65.968 277.764 65.968V65.136C278.393 65.136 278.873 65.0773 279.204 64.96C279.545 64.832 279.774 64.672 279.892 64.48C280.02 64.288 280.084 64.0907 280.084 63.888C280.084 63.5573 280.068 63.2267 280.036 62.896C280.014 62.5547 279.993 62.2133 279.972 61.872C279.95 61.5307 279.94 61.1733 279.94 60.8C279.94 59.9787 280.18 59.4187 280.66 59.12C281.15 58.8213 281.897 58.672 282.9 58.672H283.876V59.424H283.044C282.5 59.424 282.084 59.4773 281.796 59.584C281.518 59.68 281.326 59.8347 281.22 60.048C281.113 60.2507 281.06 60.528 281.06 60.88C281.06 61.3387 281.076 61.8133 281.108 62.304C281.14 62.784 281.156 63.2747 281.156 63.776C281.156 64.288 281.049 64.6827 280.836 64.96C280.633 65.2373 280.254 65.424 279.7 65.52V65.584C280.254 65.68 280.633 65.8667 280.836 66.144C281.049 66.4213 281.156 66.816 281.156 67.328C281.156 67.8613 281.14 68.3573 281.108 68.816C281.076 69.264 281.06 69.7333 281.06 70.224C281.06 70.5653 281.113 70.8427 281.22 71.056C281.326 71.2693 281.518 71.424 281.796 71.52C282.084 71.6267 282.5 71.68 283.044 71.68H283.876V72.432H282.9Z" fill="#F8F8F2" style="fill:#F8F8F2;fill:color(display-p3 0.9725 0.9725 0.9490);fill-opacity:1;"/>
<path d="M214.224 70.192C213.413 70.192 212.682 70.032 212.032 69.712C211.392 69.392 210.885 68.928 210.512 68.32C210.149 67.712 209.968 66.9813 209.968 66.128C209.968 65.2533 210.165 64.512 210.56 63.904C210.954 63.296 211.477 62.832 212.128 62.512C212.789 62.192 213.514 62.032 214.304 62.032C214.944 62.032 215.493 62.144 215.952 62.368C216.421 62.592 216.816 62.8587 217.135 63.168L216.48 64.016C216.16 63.7387 215.829 63.52 215.488 63.36C215.146 63.2 214.768 63.12 214.352 63.12C213.754 63.12 213.226 63.248 212.768 63.504C212.309 63.7493 211.952 64.1013 211.696 64.56C211.45 65.008 211.328 65.5307 211.328 66.128C211.328 66.7147 211.45 67.232 211.696 67.68C211.941 68.128 212.288 68.48 212.736 68.736C213.194 68.9813 213.722 69.104 214.32 69.104C214.8 69.104 215.237 69.008 215.632 68.816C216.037 68.624 216.4 68.3947 216.72 68.128L217.312 68.976C216.885 69.36 216.405 69.6587 215.872 69.872C215.349 70.0853 214.8 70.192 214.224 70.192ZM223.081 70.192C222.399 70.192 221.764 70.032 221.177 69.712C220.601 69.392 220.132 68.928 219.769 68.32C219.417 67.712 219.241 66.9813 219.241 66.128C219.241 65.2533 219.417 64.512 219.769 63.904C220.132 63.296 220.601 62.832 221.177 62.512C221.764 62.192 222.399 62.032 223.081 62.032C223.764 62.032 224.393 62.192 224.969 62.512C225.556 62.832 226.025 63.296 226.377 63.904C226.74 64.512 226.921 65.2533 226.921 66.128C226.921 66.9813 226.74 67.712 226.377 68.32C226.025 68.928 225.556 69.392 224.969 69.712C224.393 70.032 223.764 70.192 223.081 70.192ZM223.081 69.104C223.583 69.104 224.02 68.9813 224.393 68.736C224.767 68.48 225.055 68.128 225.257 67.68C225.46 67.232 225.561 66.7147 225.561 66.128C225.561 65.5307 225.46 65.008 225.257 64.56C225.055 64.1013 224.767 63.7493 224.393 63.504C224.02 63.248 223.583 63.12 223.081 63.12C222.58 63.12 222.143 63.248 221.769 63.504C221.407 63.7493 221.119 64.1013 220.905 64.56C220.703 65.008 220.601 65.5307 220.601 66.128C220.601 66.7147 220.703 67.232 220.905 67.68C221.119 68.128 221.407 68.48 221.769 68.736C222.143 68.9813 222.58 69.104 223.081 69.104ZM232.675 70.192C231.992 70.192 231.358 70.032 230.771 69.712C230.195 69.392 229.726 68.928 229.363 68.32C229.011 67.712 228.835 66.9813 228.835 66.128C228.835 65.2533 229.011 64.512 229.363 63.904C229.726 63.296 230.195 62.832 230.771 62.512C231.358 62.192 231.992 62.032 232.675 62.032C233.358 62.032 233.987 62.192 234.563 62.512C235.15 62.832 235.619 63.296 235.971 63.904C236.334 64.512 236.515 65.2533 236.515 66.128C236.515 66.9813 236.334 67.712 235.971 68.32C235.619 68.928 235.15 69.392 234.563 69.712C233.987 70.032 233.358 70.192 232.675 70.192ZM232.675 69.104C233.176 69.104 233.614 68.9813 233.987 68.736C234.36 68.48 234.648 68.128 234.851 67.68C235.054 67.232 235.155 66.7147 235.155 66.128C235.155 65.5307 235.054 65.008 234.851 64.56C234.648 64.1013 234.36 63.7493 233.987 63.504C233.614 63.248 233.176 63.12 232.675 63.12C232.174 63.12 231.736 63.248 231.363 63.504C231 63.7493 230.712 64.1013 230.499 64.56C230.296 65.008 230.195 65.5307 230.195 66.128C230.195 66.7147 230.296 67.232 230.499 67.68C230.712 68.128 231 68.48 231.363 68.736C231.736 68.9813 232.174 69.104 232.675 69.104ZM239.805 70V62.224H240.893L241.005 64.064H241.053C241.458 63.4347 241.959 62.9387 242.557 62.576C243.154 62.2133 243.81 62.032 244.525 62.032C244.813 62.032 245.079 62.0587 245.325 62.112C245.581 62.1547 245.826 62.2347 246.061 62.352L245.757 63.488C245.49 63.392 245.261 63.3227 245.069 63.28C244.877 63.2373 244.626 63.216 244.317 63.216C243.73 63.216 243.165 63.3867 242.621 63.728C242.087 64.0587 241.586 64.6293 241.117 65.44V70H239.805ZM251.399 70.192C250.385 70.192 249.569 69.84 248.951 69.136C248.332 68.4213 248.023 67.4187 248.023 66.128C248.023 65.2853 248.188 64.56 248.519 63.952C248.86 63.3333 249.297 62.8587 249.831 62.528C250.375 62.1973 250.951 62.032 251.559 62.032C252.017 62.032 252.433 62.1227 252.807 62.304C253.191 62.4747 253.548 62.72 253.879 63.04H253.927L253.863 61.6V58.608H255.175V70H254.087L253.975 68.976H253.927C253.617 69.3067 253.239 69.5947 252.791 69.84C252.353 70.0747 251.889 70.192 251.399 70.192ZM251.671 69.088C252.055 69.088 252.428 68.992 252.791 68.8C253.153 68.5973 253.511 68.304 253.863 67.92V64.048C253.511 63.7173 253.164 63.4827 252.823 63.344C252.492 63.2053 252.156 63.136 251.815 63.136C251.367 63.136 250.956 63.264 250.583 63.52C250.22 63.7653 249.927 64.112 249.703 64.56C249.489 64.9973 249.383 65.5147 249.383 66.112C249.383 67.04 249.585 67.7707 249.991 68.304C250.396 68.8267 250.956 69.088 251.671 69.088Z" fill="#FFB86C" style="fill:#FFB86C;fill:color(display-p3 1.0000 0.7216 0.4235);fill-opacity:1;"/>
<path d="M76.711 90V82.224H77.799L77.911 84.064H77.959C78.3643 83.4347 78.8657 82.9387 79.463 82.576C80.0603 82.2133 80.7163 82.032 81.431 82.032C81.719 82.032 81.9857 82.0587 82.231 82.112C82.487 82.1547 82.7323 82.2347 82.967 82.352L82.663 83.488C82.3963 83.392 82.167 83.3227 81.975 83.28C81.783 83.2373 81.5323 83.216 81.223 83.216C80.6363 83.216 80.071 83.3867 79.527 83.728C78.9937 84.0587 78.4923 84.6293 78.023 85.44V90H76.711ZM89.2488 90.192C88.4701 90.192 87.7608 90.032 87.1208 89.712C86.4914 89.392 85.9901 88.928 85.6168 88.32C85.2434 87.7013 85.0568 86.96 85.0568 86.096C85.0568 85.2533 85.2434 84.528 85.6168 83.92C85.9901 83.312 86.4754 82.848 87.0728 82.528C87.6808 82.1973 88.3314 82.032 89.0248 82.032C89.7714 82.032 90.4061 82.1867 90.9288 82.496C91.4621 82.7947 91.8674 83.216 92.1448 83.76C92.4328 84.304 92.5768 84.944 92.5768 85.68C92.5768 85.8293 92.5714 85.9733 92.5608 86.112C92.5501 86.2507 92.5341 86.3733 92.5128 86.48H85.9368V85.456H91.7288L91.3928 85.824C91.3928 84.9067 91.1794 84.2187 90.7528 83.76C90.3368 83.3013 89.7714 83.072 89.0568 83.072C88.5768 83.072 88.1288 83.1893 87.7128 83.424C87.3074 83.6587 86.9821 84 86.7368 84.448C86.4914 84.896 86.3688 85.4453 86.3688 86.096C86.3688 86.768 86.5021 87.328 86.7688 87.776C87.0354 88.224 87.3981 88.5653 87.8568 88.8C88.3154 89.024 88.8328 89.136 89.4088 89.136C89.8781 89.136 90.2994 89.072 90.6728 88.944C91.0568 88.8053 91.4248 88.624 91.7768 88.4L92.2568 89.264C91.8728 89.52 91.4301 89.7387 90.9288 89.92C90.4381 90.1013 89.8781 90.192 89.2488 90.192ZM99.8665 90.192C99.1092 90.192 98.5118 90.0587 98.0745 89.792C97.6372 89.5147 97.3225 89.136 97.1305 88.656C96.9492 88.176 96.8585 87.616 96.8585 86.976V83.296H94.6665V82.304L96.9065 82.224L97.0825 79.728H98.1705V82.224H101.995V83.296H98.1705V86.992C98.1705 87.4507 98.2292 87.84 98.3465 88.16C98.4638 88.48 98.6665 88.72 98.9545 88.88C99.2425 89.04 99.6372 89.12 100.139 89.12C100.512 89.12 100.848 89.088 101.147 89.024C101.445 88.96 101.733 88.8747 102.01 88.768L102.299 89.728C101.947 89.856 101.573 89.9627 101.179 90.048C100.795 90.144 100.357 90.192 99.8665 90.192ZM107.092 90.192C106.164 90.192 105.482 89.9253 105.044 89.392C104.607 88.8587 104.388 88.08 104.388 87.056V82.224H105.716V86.88C105.716 87.616 105.85 88.1653 106.116 88.528C106.394 88.88 106.858 89.056 107.508 89.056C107.956 89.056 108.362 88.944 108.724 88.72C109.098 88.4853 109.498 88.1173 109.924 87.616V82.224H111.236V90H110.164L110.052 88.64H109.988C109.594 89.088 109.162 89.4613 108.692 89.76C108.223 90.048 107.69 90.192 107.092 90.192ZM115.086 90V82.224H116.174L116.286 84.064H116.334C116.739 83.4347 117.241 82.9387 117.838 82.576C118.435 82.2133 119.091 82.032 119.806 82.032C120.094 82.032 120.361 82.0587 120.606 82.112C120.862 82.1547 121.107 82.2347 121.342 82.352L121.038 83.488C120.771 83.392 120.542 83.3227 120.35 83.28C120.158 83.2373 119.907 83.216 119.598 83.216C119.011 83.216 118.446 83.3867 117.902 83.728C117.369 84.0587 116.867 84.6293 116.398 85.44V90H115.086ZM123.832 90V82.224H124.92L125.032 83.552H125.096C125.501 83.1147 125.938 82.752 126.408 82.464C126.877 82.176 127.416 82.032 128.024 82.032C128.941 82.032 129.618 82.2987 130.056 82.832C130.493 83.3653 130.712 84.144 130.712 85.168V90H129.4V85.344C129.4 84.608 129.261 84.064 128.984 83.712C128.706 83.3493 128.248 83.168 127.608 83.168C127.149 83.168 126.738 83.2853 126.376 83.52C126.013 83.7547 125.602 84.1067 125.144 84.576V90H123.832ZM145.403 90V81.568C145.403 80.9387 145.515 80.3893 145.739 79.92C145.974 79.44 146.321 79.072 146.779 78.816C147.238 78.5493 147.825 78.416 148.539 78.416C148.923 78.416 149.297 78.4533 149.659 78.528C150.033 78.592 150.406 78.704 150.779 78.864L150.475 79.856C150.155 79.7067 149.857 79.6107 149.579 79.568C149.313 79.5147 149.009 79.488 148.667 79.488C147.974 79.488 147.473 79.6693 147.163 80.032C146.854 80.3947 146.699 80.8907 146.699 81.52V90H145.403ZM143.179 83.296V82.304L145.451 82.224H149.963V83.296H143.179ZM157.621 90.192C156.8 90.192 156.17 89.9573 155.733 89.488C155.296 89.008 155.077 88.3093 155.077 87.392V79.68H152.421V78.608H156.389V87.488C156.389 88.0533 156.528 88.464 156.805 88.72C157.082 88.976 157.45 89.104 157.909 89.104C158.133 89.104 158.362 89.0773 158.597 89.024C158.832 88.96 159.093 88.864 159.381 88.736L159.717 89.728C159.365 89.856 159.034 89.9627 158.725 90.048C158.416 90.144 158.048 90.192 157.621 90.192ZM165.519 90.192C164.836 90.192 164.201 90.032 163.615 89.712C163.039 89.392 162.569 88.928 162.207 88.32C161.855 87.712 161.679 86.9813 161.679 86.128C161.679 85.2533 161.855 84.512 162.207 83.904C162.569 83.296 163.039 82.832 163.615 82.512C164.201 82.192 164.836 82.032 165.519 82.032C166.201 82.032 166.831 82.192 167.407 82.512C167.993 82.832 168.463 83.296 168.815 83.904C169.177 84.512 169.359 85.2533 169.359 86.128C169.359 86.9813 169.177 87.712 168.815 88.32C168.463 88.928 167.993 89.392 167.407 89.712C166.831 90.032 166.201 90.192 165.519 90.192ZM165.519 89.104C166.02 89.104 166.457 88.9813 166.831 88.736C167.204 88.48 167.492 88.128 167.695 87.68C167.897 87.232 167.999 86.7147 167.999 86.128C167.999 85.5307 167.897 85.008 167.695 84.56C167.492 84.1013 167.204 83.7493 166.831 83.504C166.457 83.248 166.02 83.12 165.519 83.12C165.017 83.12 164.58 83.248 164.207 83.504C163.844 83.7493 163.556 84.1013 163.343 84.56C163.14 85.008 163.039 85.5307 163.039 86.128C163.039 86.7147 163.14 87.232 163.343 87.68C163.556 88.128 163.844 88.48 164.207 88.736C164.58 88.9813 165.017 89.104 165.519 89.104ZM174.249 90.192C173.769 90.192 173.326 90.1067 172.921 89.936C172.515 89.7547 172.195 89.4987 171.961 89.168C171.726 88.8373 171.609 88.4427 171.609 87.984C171.609 87.1093 172.046 86.448 172.921 86C173.795 85.5413 175.235 85.232 177.241 85.072C177.23 84.72 177.155 84.3947 177.017 84.096C176.889 83.7973 176.675 83.5627 176.377 83.392C176.078 83.2107 175.678 83.12 175.177 83.12C174.846 83.12 174.515 83.168 174.185 83.264C173.865 83.3493 173.555 83.4667 173.257 83.616C172.969 83.7547 172.702 83.8987 172.457 84.048L171.945 83.152C172.201 82.9813 172.51 82.8107 172.873 82.64C173.246 82.4587 173.646 82.3147 174.073 82.208C174.499 82.0907 174.942 82.032 175.401 82.032C176.115 82.032 176.702 82.1653 177.161 82.432C177.63 82.6987 177.977 83.072 178.201 83.552C178.435 84.0213 178.553 84.5813 178.553 85.232V90H177.481L177.369 88.944H177.321C176.894 89.2853 176.414 89.5787 175.881 89.824C175.347 90.0693 174.803 90.192 174.249 90.192ZM174.601 89.136C175.049 89.136 175.491 89.0347 175.929 88.832C176.366 88.6293 176.803 88.3467 177.241 87.984V85.936C176.131 86.032 175.257 86.1653 174.617 86.336C173.987 86.5067 173.539 86.7253 173.273 86.992C173.017 87.248 172.889 87.5467 172.889 87.888C172.889 88.176 172.969 88.416 173.129 88.608C173.289 88.7893 173.497 88.9227 173.753 89.008C174.019 89.0933 174.302 89.136 174.601 89.136ZM186.21 90.192C185.453 90.192 184.856 90.0587 184.418 89.792C183.981 89.5147 183.666 89.136 183.474 88.656C183.293 88.176 183.202 87.616 183.202 86.976V83.296H181.01V82.304L183.25 82.224L183.426 79.728H184.514V82.224H188.338V83.296H184.514V86.992C184.514 87.4507 184.573 87.84 184.69 88.16C184.808 88.48 185.01 88.72 185.298 88.88C185.586 89.04 185.981 89.12 186.482 89.12C186.856 89.12 187.192 89.088 187.49 89.024C187.789 88.96 188.077 88.8747 188.354 88.768L188.642 89.728C188.29 89.856 187.917 89.9627 187.522 90.048C187.138 90.144 186.701 90.192 186.21 90.192ZM195.388 90V82.96C195.399 82.6827 195.409 82.384 195.42 82.064C195.441 81.7333 195.457 81.4293 195.468 81.152H195.388C195.228 81.3973 195.057 81.648 194.876 81.904C194.695 82.1493 194.519 82.3947 194.348 82.64L191.58 86.128H198.22V87.184H190.124V86.304L195.228 79.792H196.636V90H195.388ZM206.022 92.816C204.912 91.9413 204.032 90.9013 203.382 89.696C202.742 88.48 202.422 87.0987 202.422 85.552C202.422 84.0053 202.742 82.624 203.382 81.408C204.032 80.192 204.912 79.152 206.022 78.288L206.742 78.96C205.675 79.856 204.886 80.8427 204.374 81.92C203.862 82.9973 203.606 84.208 203.606 85.552C203.606 86.896 203.862 88.1067 204.374 89.184C204.886 90.2507 205.675 91.2373 206.742 92.144L206.022 92.816ZM307.297 92.816L306.577 92.144C307.644 91.2373 308.433 90.2507 308.945 89.184C309.457 88.1067 309.713 86.896 309.713 85.552C309.713 84.208 309.457 82.9973 308.945 81.92C308.433 80.8427 307.644 79.856 306.577 78.96L307.297 78.288C308.417 79.152 309.297 80.192 309.937 81.408C310.577 82.624 310.897 84.0053 310.897 85.552C310.897 87.0987 310.577 88.48 309.937 89.696C309.297 90.9013 308.417 91.9413 307.297 92.816Z" fill="#FF79C6" style="fill:#FF79C6;fill:color(display-p3 1.0000 0.4745 0.7765);fill-opacity:1;"/>
<path d="M210.24 90V88.912H213.184V81.392H210.896V80.544C211.301 80.4907 211.658 80.4267 211.968 80.352C212.277 80.2773 212.56 80.1973 212.816 80.112C213.072 80.016 213.306 79.9093 213.52 79.792H214.496V88.912H217.168V90H210.24ZM239.021 90V88.912H241.965V81.392H239.677V80.544C240.082 80.4907 240.439 80.4267 240.749 80.352C241.058 80.2773 241.341 80.1973 241.597 80.112C241.853 80.016 242.087 79.9093 242.301 79.792H243.277V88.912H245.949V90H239.021ZM267.802 90V88.912H270.746V81.392H268.458V80.544C268.863 80.4907 269.221 80.4267 269.53 80.352C269.839 80.2773 270.122 80.1973 270.378 80.112C270.634 80.016 270.869 79.9093 271.082 79.792H272.058V88.912H274.73V90H267.802ZM296.583 90V88.912H299.527V81.392H297.239V80.544C297.645 80.4907 298.002 80.4267 298.311 80.352C298.621 80.2773 298.903 80.1973 299.159 80.112C299.415 80.016 299.65 79.9093 299.863 79.792H300.839V88.912H303.511V90H296.583Z" fill="#BD93F9" style="fill:#BD93F9;fill:color(display-p3 0.7412 0.5765 0.9765);fill-opacity:1;"/>
<path d="M221.801 93.408L221.433 92.576C222.116 92.2773 222.623 91.8987 222.953 91.44C223.284 90.992 223.449 90.4373 223.449 89.776L223.145 88.304L224.041 89.568C223.913 89.7173 223.769 89.8187 223.609 89.872C223.46 89.9147 223.305 89.936 223.145 89.936C222.921 89.936 222.713 89.8933 222.521 89.808C222.329 89.712 222.175 89.5787 222.057 89.408C221.951 89.2267 221.897 89.0027 221.897 88.736C221.897 88.3413 222.025 88.0427 222.281 87.84C222.537 87.6267 222.836 87.52 223.177 87.52C223.647 87.52 224.004 87.7067 224.249 88.08C224.495 88.4427 224.617 88.9387 224.617 89.568C224.617 90.5067 224.367 91.296 223.865 91.936C223.364 92.5867 222.676 93.0773 221.801 93.408ZM250.583 93.408L250.215 92.576C250.897 92.2773 251.404 91.8987 251.735 91.44C252.065 90.992 252.231 90.4373 252.231 89.776L251.927 88.304L252.823 89.568C252.695 89.7173 252.551 89.8187 252.391 89.872C252.241 89.9147 252.087 89.936 251.927 89.936C251.703 89.936 251.495 89.8933 251.303 89.808C251.111 89.712 250.956 89.5787 250.839 89.408C250.732 89.2267 250.679 89.0027 250.679 88.736C250.679 88.3413 250.807 88.0427 251.062 87.84C251.319 87.6267 251.617 87.52 251.959 87.52C252.428 87.52 252.785 87.7067 253.031 88.08C253.276 88.4427 253.399 88.9387 253.399 89.568C253.399 90.5067 253.148 91.296 252.647 91.936C252.145 92.5867 251.457 93.0773 250.583 93.408ZM279.364 93.408L278.996 92.576C279.678 92.2773 280.185 91.8987 280.516 91.44C280.846 90.992 281.012 90.4373 281.012 89.776L280.708 88.304L281.604 89.568C281.476 89.7173 281.332 89.8187 281.172 89.872C281.022 89.9147 280.868 89.936 280.708 89.936C280.484 89.936 280.276 89.8933 280.084 89.808C279.892 89.712 279.737 89.5787 279.62 89.408C279.513 89.2267 279.46 89.0027 279.46 88.736C279.46 88.3413 279.588 88.0427 279.844 87.84C280.1 87.6267 280.398 87.52 280.74 87.52C281.209 87.52 281.566 87.7067 281.812 88.08C282.057 88.4427 282.18 88.9387 282.18 89.568C282.18 90.5067 281.929 91.296 281.428 91.936C280.926 92.5867 280.238 93.0773 279.364 93.408ZM319.019 84.464C318.667 84.464 318.363 84.3413 318.107 84.096C317.851 83.84 317.723 83.5147 317.723 83.12C317.723 82.7147 317.851 82.3893 318.107 82.144C318.363 81.888 318.667 81.76 319.019 81.76C319.381 81.76 319.685 81.888 319.931 82.144C320.187 82.3893 320.315 82.7147 320.315 83.12C320.315 83.5147 320.187 83.84 319.931 84.096C319.685 84.3413 319.381 84.464 319.019 84.464ZM317.739 93.408L317.371 92.576C318.053 92.2773 318.56 91.8987 318.891 91.44C319.221 90.992 319.387 90.4373 319.387 89.776L319.083 88.304L319.979 89.568C319.851 89.7173 319.707 89.8187 319.547 89.872C319.397 89.9147 319.243 89.936 319.083 89.936C318.859 89.936 318.651 89.8933 318.459 89.808C318.267 89.712 318.112 89.5787 317.995 89.408C317.888 89.2267 317.835 89.0027 317.835 88.736C317.835 88.3413 317.963 88.0427 318.219 87.84C318.475 87.6267 318.773 87.52 319.115 87.52C319.584 87.52 319.941 87.7067 320.187 88.08C320.432 88.4427 320.555 88.9387 320.555 89.568C320.555 90.5067 320.304 91.296 319.803 91.936C319.301 92.5867 318.613 93.0773 317.739 93.408Z" fill="#F8F8F2" style="fill:#F8F8F2;fill:color(display-p3 0.9725 0.9725 0.9490);fill-opacity:1;"/>
<path d="M37.584 112.432V111.68H38.4C38.9547 111.68 39.3707 111.627 39.648 111.52C39.936 111.424 40.1333 111.269 40.24 111.056C40.3467 110.843 40.4 110.565 40.4 110.224C40.4 109.733 40.384 109.264 40.352 108.816C40.32 108.357 40.304 107.861 40.304 107.328C40.304 106.816 40.4053 106.421 40.608 106.144C40.8107 105.867 41.1893 105.68 41.744 105.584V105.52C41.1893 105.424 40.8107 105.237 40.608 104.96C40.4053 104.683 40.304 104.288 40.304 103.776C40.304 103.275 40.32 102.784 40.352 102.304C40.384 101.813 40.4 101.339 40.4 100.88C40.4 100.528 40.3467 100.251 40.24 100.048C40.1333 99.8347 39.936 99.68 39.648 99.584C39.3707 99.4773 38.9547 99.424 38.4 99.424H37.584V98.672H38.56C39.5627 98.672 40.304 98.8213 40.784 99.12C41.264 99.4187 41.504 99.9787 41.504 100.8C41.504 101.173 41.4933 101.531 41.472 101.872C41.4507 102.213 41.424 102.555 41.392 102.896C41.3707 103.227 41.36 103.557 41.36 103.888C41.36 104.091 41.4187 104.288 41.536 104.48C41.664 104.672 41.8933 104.832 42.224 104.96C42.5653 105.077 43.0507 105.136 43.68 105.136V105.968C43.0507 105.968 42.5653 106.032 42.224 106.16C41.8933 106.277 41.664 106.432 41.536 106.624C41.4187 106.805 41.36 107.003 41.36 107.216C41.36 107.568 41.3707 107.909 41.392 108.24C41.424 108.56 41.4507 108.885 41.472 109.216C41.4933 109.547 41.504 109.909 41.504 110.304C41.504 111.125 41.264 111.685 40.784 111.984C40.304 112.283 39.5627 112.432 38.56 112.432H37.584Z" fill="#F8F8F2" style="fill:#F8F8F2;fill:color(display-p3 0.9725 0.9725 0.9490);fill-opacity:1;"/>
<rect x="36" y="34" width="288" height="20" stroke="#44475B" style="stroke:#44475B;stroke:color(display-p3 0.2667 0.2784 0.3569);stroke-opacity:1;" stroke-width="2"/>
<line x1="116" y1="33" x2="116" y2="55" stroke="#AEAFAD" style="stroke:#AEAFAD;stroke:color(display-p3 0.6824 0.6863 0.6784);stroke-opacity:1;" stroke-width="2"/>
<g clip-path="url(#clip0_1_41)">
<rect x="118" y="54" width="150" height="105" fill="#21222C" style="fill:#21222C;fill:color(display-p3 0.1294 0.1333 0.1725);fill-opacity:1;"/>
<rect width="150" height="21" transform="translate(118 54)" fill="#44475B" style="fill:#44475B;fill:color(display-p3 0.2667 0.2784 0.3569);fill-opacity:1;"/>
<path d="M143.96 70.192C143.203 70.192 142.493 70.0693 141.832 69.824C141.171 69.5787 140.605 69.296 140.136 68.976L140.744 68.112C141.192 68.432 141.688 68.688 142.232 68.88C142.776 69.072 143.405 69.168 144.12 69.168C144.781 69.168 145.272 69.0453 145.592 68.8C145.923 68.5547 146.088 68.272 146.088 67.952C146.088 67.8027 146.056 67.664 145.992 67.536C145.939 67.408 145.827 67.2853 145.656 67.168C145.496 67.0507 145.256 66.9387 144.936 66.832C144.616 66.7253 144.189 66.6187 143.656 66.512C142.643 66.2987 141.88 66.0107 141.368 65.648C140.867 65.2853 140.616 64.816 140.616 64.24C140.616 63.6107 140.888 63.088 141.432 62.672C141.976 62.2453 142.781 62.032 143.848 62.032C144.445 62.032 145.021 62.1333 145.576 62.336C146.131 62.528 146.6 62.7573 146.984 63.024L146.344 63.872C145.992 63.616 145.592 63.4187 145.144 63.28C144.696 63.1307 144.227 63.056 143.736 63.056C143.288 63.056 142.931 63.1093 142.664 63.216C142.408 63.312 142.221 63.4453 142.104 63.616C141.997 63.7867 141.944 63.9733 141.944 64.176C141.944 64.5067 142.12 64.768 142.472 64.96C142.835 65.1413 143.411 65.312 144.2 65.472C145.064 65.6533 145.725 65.856 146.184 66.08C146.653 66.304 146.973 66.56 147.144 66.848C147.325 67.136 147.416 67.4773 147.416 67.872C147.416 68.2987 147.283 68.688 147.016 69.04C146.749 69.3813 146.36 69.6587 145.848 69.872C145.336 70.0853 144.707 70.192 143.96 70.192ZM150.082 70V58.608H151.394V61.712L151.314 63.552H151.362C151.756 63.1253 152.188 62.768 152.658 62.48C153.127 62.1813 153.666 62.032 154.274 62.032C155.191 62.032 155.868 62.2987 156.306 62.832C156.743 63.3653 156.962 64.144 156.962 65.168V70H155.65V65.344C155.65 64.608 155.511 64.064 155.234 63.712C154.956 63.3493 154.498 63.168 153.858 63.168C153.399 63.168 152.988 63.2853 152.626 63.52C152.263 63.7547 151.852 64.1067 151.394 64.576V70H150.082ZM162.124 70.192C161.644 70.192 161.201 70.1067 160.796 69.936C160.39 69.7547 160.07 69.4987 159.836 69.168C159.601 68.8373 159.484 68.4427 159.484 67.984C159.484 67.1093 159.921 66.448 160.796 66C161.67 65.5413 163.11 65.232 165.116 65.072C165.105 64.72 165.03 64.3947 164.892 64.096C164.764 63.7973 164.55 63.5627 164.252 63.392C163.953 63.2107 163.553 63.12 163.052 63.12C162.721 63.12 162.39 63.168 162.06 63.264C161.74 63.3493 161.43 63.4667 161.132 63.616C160.844 63.7547 160.577 63.8987 160.332 64.048L159.82 63.152C160.076 62.9813 160.385 62.8107 160.748 62.64C161.121 62.4587 161.521 62.3147 161.948 62.208C162.374 62.0907 162.817 62.032 163.276 62.032C163.99 62.032 164.577 62.1653 165.036 62.432C165.505 62.6987 165.852 63.072 166.076 63.552C166.31 64.0213 166.428 64.5813 166.428 65.232V70H165.356L165.244 68.944H165.196C164.769 69.2853 164.289 69.5787 163.756 69.824C163.222 70.0693 162.678 70.192 162.124 70.192ZM162.476 69.136C162.924 69.136 163.366 69.0347 163.804 68.832C164.241 68.6293 164.678 68.3467 165.116 67.984V65.936C164.006 66.032 163.132 66.1653 162.492 66.336C161.862 66.5067 161.414 66.7253 161.148 66.992C160.892 67.248 160.764 67.5467 160.764 67.888C160.764 68.176 160.844 68.416 161.004 68.608C161.164 68.7893 161.372 68.9227 161.628 69.008C161.894 69.0933 162.177 69.136 162.476 69.136ZM172.117 70.192C171.104 70.192 170.288 69.84 169.669 69.136C169.051 68.4213 168.741 67.4187 168.741 66.128C168.741 65.2853 168.907 64.56 169.237 63.952C169.579 63.3333 170.016 62.8587 170.549 62.528C171.093 62.1973 171.669 62.032 172.277 62.032C172.736 62.032 173.152 62.1227 173.525 62.304C173.909 62.4747 174.267 62.72 174.597 63.04H174.645L174.581 61.6V58.608H175.893V70H174.805L174.693 68.976H174.645C174.336 69.3067 173.957 69.5947 173.509 69.84C173.072 70.0747 172.608 70.192 172.117 70.192ZM172.389 69.088C172.773 69.088 173.147 68.992 173.509 68.8C173.872 68.5973 174.229 68.304 174.581 67.92V64.048C174.229 63.7173 173.883 63.4827 173.541 63.344C173.211 63.2053 172.875 63.136 172.533 63.136C172.085 63.136 171.675 63.264 171.301 63.52C170.939 63.7653 170.645 64.112 170.421 64.56C170.208 64.9973 170.101 65.5147 170.101 66.112C170.101 67.04 170.304 67.7707 170.709 68.304C171.115 68.8267 171.675 69.088 172.389 69.088ZM182.655 70.192C181.876 70.192 181.167 70.032 180.527 69.712C179.898 69.392 179.396 68.928 179.023 68.32C178.65 67.7013 178.463 66.96 178.463 66.096C178.463 65.2533 178.65 64.528 179.023 63.92C179.396 63.312 179.882 62.848 180.479 62.528C181.087 62.1973 181.738 62.032 182.431 62.032C183.178 62.032 183.812 62.1867 184.335 62.496C184.868 62.7947 185.274 63.216 185.551 63.76C185.839 64.304 185.983 64.944 185.983 65.68C185.983 65.8293 185.978 65.9733 185.967 66.112C185.956 66.2507 185.94 66.3733 185.919 66.48H179.343V65.456H185.135L184.799 65.824C184.799 64.9067 184.586 64.2187 184.159 63.76C183.743 63.3013 183.178 63.072 182.463 63.072C181.983 63.072 181.535 63.1893 181.119 63.424C180.714 63.6587 180.388 64 180.143 64.448C179.898 64.896 179.775 65.4453 179.775 66.096C179.775 66.768 179.908 67.328 180.175 67.776C180.442 68.224 180.804 68.5653 181.263 68.8C181.722 69.024 182.239 69.136 182.815 69.136C183.284 69.136 183.706 69.072 184.079 68.944C184.463 68.8053 184.831 68.624 185.183 68.4L185.663 69.264C185.279 69.52 184.836 69.7387 184.335 69.92C183.844 70.1013 183.284 70.192 182.655 70.192ZM189.305 70V62.224H190.393L190.505 64.064H190.553C190.958 63.4347 191.459 62.9387 192.057 62.576C192.654 62.2133 193.31 62.032 194.025 62.032C194.313 62.032 194.579 62.0587 194.825 62.112C195.081 62.1547 195.326 62.2347 195.561 62.352L195.257 63.488C194.99 63.392 194.761 63.3227 194.569 63.28C194.377 63.2373 194.126 63.216 193.817 63.216C193.23 63.216 192.665 63.3867 192.121 63.728C191.587 64.0587 191.086 64.6293 190.617 65.44V70H189.305Z" fill="#F8F8F2" style="fill:#F8F8F2;fill:color(display-p3 0.9725 0.9725 0.9490);fill-opacity:1;"/>
<path fill-rule="evenodd" clip-rule="evenodd" d="M124 60H133V69V70H134V69V60V59H133H124H123V60V69V70H124V69V60ZM132 70V69H131V70H132ZM129 69H130V70H129V69ZM128 70V69H127V70H128ZM125 69H126V70H125V69Z" fill="#CCCCCC" style="fill:#CCCCCC;fill:color(display-p3 0.8000 0.8000 0.8000);fill-opacity:1;"/>
<rect width="150" height="21" transform="translate(118 75)" fill="#21222C" style="fill:#21222C;fill:color(display-p3 0.1294 0.1333 0.1725);fill-opacity:1;"/>
<path d="M144.536 91.192C143.725 91.192 142.995 91.032 142.344 90.712C141.704 90.392 141.197 89.928 140.824 89.32C140.461 88.712 140.28 87.9813 140.28 87.128C140.28 86.2533 140.477 85.512 140.872 84.904C141.267 84.296 141.789 83.832 142.44 83.512C143.101 83.192 143.827 83.032 144.616 83.032C145.256 83.032 145.805 83.144 146.264 83.368C146.733 83.592 147.128 83.8587 147.448 84.168L146.792 85.016C146.472 84.7387 146.141 84.52 145.8 84.36C145.459 84.2 145.08 84.12 144.664 84.12C144.067 84.12 143.539 84.248 143.08 84.504C142.621 84.7493 142.264 85.1013 142.008 85.56C141.763 86.008 141.64 86.5307 141.64 87.128C141.64 87.7147 141.763 88.232 142.008 88.68C142.253 89.128 142.6 89.48 143.048 89.736C143.507 89.9813 144.035 90.104 144.632 90.104C145.112 90.104 145.549 90.008 145.944 89.816C146.349 89.624 146.712 89.3947 147.032 89.128L147.624 89.976C147.197 90.36 146.717 90.6587 146.184 90.872C145.661 91.0853 145.112 91.192 144.536 91.192ZM153.394 91.192C152.711 91.192 152.076 91.032 151.49 90.712C150.914 90.392 150.444 89.928 150.082 89.32C149.73 88.712 149.554 87.9813 149.554 87.128C149.554 86.2533 149.73 85.512 150.082 84.904C150.444 84.296 150.914 83.832 151.49 83.512C152.076 83.192 152.711 83.032 153.394 83.032C154.076 83.032 154.706 83.192 155.282 83.512C155.868 83.832 156.338 84.296 156.69 84.904C157.052 85.512 157.234 86.2533 157.234 87.128C157.234 87.9813 157.052 88.712 156.69 89.32C156.338 89.928 155.868 90.392 155.282 90.712C154.706 91.032 154.076 91.192 153.394 91.192ZM153.394 90.104C153.895 90.104 154.332 89.9813 154.706 89.736C155.079 89.48 155.367 89.128 155.57 88.68C155.772 88.232 155.874 87.7147 155.874 87.128C155.874 86.5307 155.772 86.008 155.57 85.56C155.367 85.1013 155.079 84.7493 154.706 84.504C154.332 84.248 153.895 84.12 153.394 84.12C152.892 84.12 152.455 84.248 152.082 84.504C151.719 84.7493 151.431 85.1013 151.218 85.56C151.015 86.008 150.914 86.5307 150.914 87.128C150.914 87.7147 151.015 88.232 151.218 88.68C151.431 89.128 151.719 89.48 152.082 89.736C152.455 89.9813 152.892 90.104 153.394 90.104ZM164.684 91.192C163.862 91.192 163.233 90.9573 162.796 90.488C162.358 90.008 162.14 89.3093 162.14 88.392V80.68H159.484V79.608H163.452V88.488C163.452 89.0533 163.59 89.464 163.868 89.72C164.145 89.976 164.513 90.104 164.972 90.104C165.196 90.104 165.425 90.0773 165.66 90.024C165.894 89.96 166.156 89.864 166.444 89.736L166.78 90.728C166.428 90.856 166.097 90.9627 165.788 91.048C165.478 91.144 165.11 91.192 164.684 91.192ZM172.581 91.192C171.899 91.192 171.264 91.032 170.677 90.712C170.101 90.392 169.632 89.928 169.269 89.32C168.917 88.712 168.741 87.9813 168.741 87.128C168.741 86.2533 168.917 85.512 169.269 84.904C169.632 84.296 170.101 83.832 170.677 83.512C171.264 83.192 171.899 83.032 172.581 83.032C173.264 83.032 173.893 83.192 174.469 83.512C175.056 83.832 175.525 84.296 175.877 84.904C176.24 85.512 176.421 86.2533 176.421 87.128C176.421 87.9813 176.24 88.712 175.877 89.32C175.525 89.928 175.056 90.392 174.469 90.712C173.893 91.032 173.264 91.192 172.581 91.192ZM172.581 90.104C173.083 90.104 173.52 89.9813 173.893 89.736C174.267 89.48 174.555 89.128 174.757 88.68C174.96 88.232 175.061 87.7147 175.061 87.128C175.061 86.5307 174.96 86.008 174.757 85.56C174.555 85.1013 174.267 84.7493 173.893 84.504C173.52 84.248 173.083 84.12 172.581 84.12C172.08 84.12 171.643 84.248 171.269 84.504C170.907 84.7493 170.619 85.1013 170.405 85.56C170.203 86.008 170.101 86.5307 170.101 87.128C170.101 87.7147 170.203 88.232 170.405 88.68C170.619 89.128 170.907 89.48 171.269 89.736C171.643 89.9813 172.08 90.104 172.581 90.104ZM179.711 91V83.224H180.799L180.911 85.064H180.959C181.364 84.4347 181.866 83.9387 182.463 83.576C183.06 83.2133 183.716 83.032 184.431 83.032C184.719 83.032 184.986 83.0587 185.231 83.112C185.487 83.1547 185.732 83.2347 185.967 83.352L185.663 84.488C185.396 84.392 185.167 84.3227 184.975 84.28C184.783 84.2373 184.532 84.216 184.223 84.216C183.636 84.216 183.071 84.3867 182.527 84.728C181.994 85.0587 181.492 85.6293 181.023 86.44V91H179.711ZM190.841 91V82.568C190.841 81.9387 190.953 81.3893 191.177 80.92C191.411 80.44 191.758 80.072 192.217 79.816C192.675 79.5493 193.262 79.416 193.977 79.416C194.361 79.416 194.734 79.4533 195.097 79.528C195.47 79.592 195.843 79.704 196.217 79.864L195.913 80.856C195.593 80.7067 195.294 80.6107 195.017 80.568C194.75 80.5147 194.446 80.488 194.105 80.488C193.411 80.488 192.91 80.6693 192.601 81.032C192.291 81.3947 192.137 81.8907 192.137 82.52V91H190.841ZM188.617 84.296V83.304L190.889 83.224H195.401V84.296H188.617ZM201.619 91V84.296H198.003V83.224H202.931V91H201.619ZM202.131 81.592C201.832 81.592 201.581 81.5013 201.379 81.32C201.176 81.128 201.075 80.8773 201.075 80.568C201.075 80.2587 201.176 80.0133 201.379 79.832C201.581 79.64 201.832 79.544 202.131 79.544C202.429 79.544 202.68 79.64 202.883 79.832C203.085 80.0133 203.187 80.2587 203.187 80.568C203.187 80.8773 203.085 81.128 202.883 81.32C202.68 81.5013 202.429 81.592 202.131 81.592ZM212.652 91.192C211.831 91.192 211.202 90.9573 210.764 90.488C210.327 90.008 210.108 89.3093 210.108 88.392V80.68H207.452V79.608H211.42V88.488C211.42 89.0533 211.559 89.464 211.836 89.72C212.114 89.976 212.482 90.104 212.94 90.104C213.164 90.104 213.394 90.0773 213.628 90.024C213.863 89.96 214.124 89.864 214.412 89.736L214.748 90.728C214.396 90.856 214.066 90.9627 213.756 91.048C213.447 91.144 213.079 91.192 212.652 91.192ZM222.054 91.192C221.297 91.192 220.699 91.0587 220.262 90.792C219.825 90.5147 219.51 90.136 219.318 89.656C219.137 89.176 219.046 88.616 219.046 87.976V84.296H216.854V83.304L219.094 83.224L219.27 80.728H220.358V83.224H224.182V84.296H220.358V87.992C220.358 88.4507 220.417 88.84 220.534 89.16C220.651 89.48 220.854 89.72 221.142 89.88C221.43 90.04 221.825 90.12 222.326 90.12C222.699 90.12 223.035 90.088 223.334 90.024C223.633 89.96 223.921 89.8747 224.198 89.768L224.486 90.728C224.134 90.856 223.761 90.9627 223.366 91.048C222.982 91.144 222.545 91.192 222.054 91.192ZM230.624 91.192C229.845 91.192 229.136 91.032 228.496 90.712C227.866 90.392 227.365 89.928 226.992 89.32C226.618 88.7013 226.432 87.96 226.432 87.096C226.432 86.2533 226.618 85.528 226.992 84.92C227.365 84.312 227.85 83.848 228.448 83.528C229.056 83.1973 229.706 83.032 230.4 83.032C231.146 83.032 231.781 83.1867 232.304 83.496C232.837 83.7947 233.242 84.216 233.52 84.76C233.808 85.304 233.952 85.944 233.952 86.68C233.952 86.8293 233.946 86.9733 233.936 87.112C233.925 87.2507 233.909 87.3733 233.888 87.48H227.312V86.456H233.104L232.768 86.824C232.768 85.9067 232.554 85.2187 232.128 84.76C231.712 84.3013 231.146 84.072 230.432 84.072C229.952 84.072 229.504 84.1893 229.088 84.424C228.682 84.6587 228.357 85 228.112 85.448C227.866 85.896 227.744 86.4453 227.744 87.096C227.744 87.768 227.877 88.328 228.144 88.776C228.41 89.224 228.773 89.5653 229.232 89.8C229.69 90.024 230.208 90.136 230.784 90.136C231.253 90.136 231.674 90.072 232.048 89.944C232.432 89.8053 232.8 89.624 233.152 89.4L233.632 90.264C233.248 90.52 232.805 90.7387 232.304 90.92C231.813 91.1013 231.253 91.192 230.624 91.192ZM237.274 91V83.224H238.362L238.474 85.064H238.522C238.927 84.4347 239.428 83.9387 240.026 83.576C240.623 83.2133 241.279 83.032 241.994 83.032C242.282 83.032 242.548 83.0587 242.794 83.112C243.05 83.1547 243.295 83.2347 243.53 83.352L243.226 84.488C242.959 84.392 242.73 84.3227 242.538 84.28C242.346 84.2373 242.095 84.216 241.786 84.216C241.199 84.216 240.634 84.3867 240.09 84.728C239.556 85.0587 239.055 85.6293 238.586 86.44V91H237.274Z" fill="#F8F8F2" style="fill:#F8F8F2;fill:color(display-p3 0.9725 0.9725 0.9490);fill-opacity:1;"/>
<path fill-rule="evenodd" clip-rule="evenodd" d="M124 81H133V90V91H134V90V81V80H133H124H123V81V90V91H124V90V81ZM132 91V90H131V91H132ZM129 90H130V91H129V90ZM128 91V90H127V91H128ZM125 90H126V91H125V90Z" fill="#CCCCCC" style="fill:#CCCCCC;fill:color(display-p3 0.8000 0.8000 0.8000);fill-opacity:1;"/>
<rect width="150" height="21" transform="translate(118 96)" fill="#21222C" style="fill:#21222C;fill:color(display-p3 0.1294 0.1333 0.1725);fill-opacity:1;"/>
<path d="M144.12 112.192C143.736 112.192 143.325 112.101 142.888 111.92C142.461 111.728 142.067 111.467 141.704 111.136H141.656L141.544 112H140.488V100.608H141.8V103.712L141.752 105.216H141.8C142.152 104.853 142.557 104.565 143.016 104.352C143.485 104.139 143.949 104.032 144.408 104.032C145.112 104.032 145.704 104.197 146.184 104.528C146.664 104.848 147.027 105.307 147.272 105.904C147.517 106.491 147.64 107.184 147.64 107.984C147.64 108.869 147.475 109.627 147.144 110.256C146.824 110.885 146.397 111.365 145.864 111.696C145.331 112.027 144.749 112.192 144.12 112.192ZM143.912 111.088C144.36 111.088 144.76 110.965 145.112 110.72C145.475 110.475 145.757 110.123 145.96 109.664C146.173 109.195 146.28 108.64 146.28 108C146.28 107.435 146.205 106.939 146.056 106.512C145.907 106.075 145.672 105.739 145.352 105.504C145.032 105.259 144.611 105.136 144.088 105.136C143.736 105.136 143.363 105.232 142.968 105.424C142.584 105.605 142.195 105.899 141.8 106.304V110.176C142.173 110.507 142.547 110.741 142.92 110.88C143.304 111.019 143.635 111.088 143.912 111.088ZM155.09 112.192C154.268 112.192 153.639 111.957 153.202 111.488C152.764 111.008 152.546 110.309 152.546 109.392V101.68H149.89V100.608H153.858V109.488C153.858 110.053 153.996 110.464 154.274 110.72C154.551 110.976 154.919 111.104 155.378 111.104C155.602 111.104 155.831 111.077 156.066 111.024C156.3 110.96 156.562 110.864 156.85 110.736L157.186 111.728C156.834 111.856 156.503 111.963 156.194 112.048C155.884 112.144 155.516 112.192 155.09 112.192ZM163.468 112.192C162.689 112.192 161.98 112.032 161.34 111.712C160.71 111.392 160.209 110.928 159.836 110.32C159.462 109.701 159.276 108.96 159.276 108.096C159.276 107.253 159.462 106.528 159.836 105.92C160.209 105.312 160.694 104.848 161.292 104.528C161.9 104.197 162.55 104.032 163.244 104.032C163.99 104.032 164.625 104.187 165.148 104.496C165.681 104.795 166.086 105.216 166.364 105.76C166.652 106.304 166.796 106.944 166.796 107.68C166.796 107.829 166.79 107.973 166.78 108.112C166.769 108.251 166.753 108.373 166.732 108.48H160.156V107.456H165.948L165.612 107.824C165.612 106.907 165.398 106.219 164.972 105.76C164.556 105.301 163.99 105.072 163.276 105.072C162.796 105.072 162.348 105.189 161.932 105.424C161.526 105.659 161.201 106 160.956 106.448C160.71 106.896 160.588 107.445 160.588 108.096C160.588 108.768 160.721 109.328 160.988 109.776C161.254 110.224 161.617 110.565 162.076 110.8C162.534 111.024 163.052 111.136 163.628 111.136C164.097 111.136 164.518 111.072 164.892 110.944C165.276 110.805 165.644 110.624 165.996 110.4L166.476 111.264C166.092 111.52 165.649 111.739 165.148 111.92C164.657 112.101 164.097 112.192 163.468 112.192ZM169.269 112V104.224H170.357L170.469 105.552H170.533C170.939 105.115 171.376 104.752 171.845 104.464C172.315 104.176 172.853 104.032 173.461 104.032C174.379 104.032 175.056 104.299 175.493 104.832C175.931 105.365 176.149 106.144 176.149 107.168V112H174.837V107.344C174.837 106.608 174.699 106.064 174.421 105.712C174.144 105.349 173.685 105.168 173.045 105.168C172.587 105.168 172.176 105.285 171.813 105.52C171.451 105.755 171.04 106.107 170.581 106.576V112H169.269ZM181.711 112.192C180.698 112.192 179.882 111.84 179.263 111.136C178.644 110.421 178.335 109.419 178.335 108.128C178.335 107.285 178.5 106.56 178.831 105.952C179.172 105.333 179.61 104.859 180.143 104.528C180.687 104.197 181.263 104.032 181.871 104.032C182.33 104.032 182.746 104.123 183.119 104.304C183.503 104.475 183.86 104.72 184.191 105.04H184.239L184.175 103.6V100.608H185.487V112H184.399L184.287 110.976H184.239C183.93 111.307 183.551 111.595 183.103 111.84C182.666 112.075 182.202 112.192 181.711 112.192ZM181.983 111.088C182.367 111.088 182.74 110.992 183.103 110.8C183.466 110.597 183.823 110.304 184.175 109.92V106.048C183.823 105.717 183.476 105.483 183.135 105.344C182.804 105.205 182.468 105.136 182.127 105.136C181.679 105.136 181.268 105.264 180.895 105.52C180.532 105.765 180.239 106.112 180.015 106.56C179.802 106.997 179.695 107.515 179.695 108.112C179.695 109.04 179.898 109.771 180.303 110.304C180.708 110.827 181.268 111.088 181.983 111.088ZM192.249 112.192C191.47 112.192 190.761 112.032 190.121 111.712C189.491 111.392 188.99 110.928 188.617 110.32C188.243 109.701 188.057 108.96 188.057 108.096C188.057 107.253 188.243 106.528 188.617 105.92C188.99 105.312 189.475 104.848 190.073 104.528C190.681 104.197 191.331 104.032 192.025 104.032C192.771 104.032 193.406 104.187 193.929 104.496C194.462 104.795 194.867 105.216 195.145 105.76C195.433 106.304 195.577 106.944 195.577 107.68C195.577 107.829 195.571 107.973 195.561 108.112C195.55 108.251 195.534 108.373 195.513 108.48H188.937V107.456H194.729L194.393 107.824C194.393 106.907 194.179 106.219 193.753 105.76C193.337 105.301 192.771 105.072 192.057 105.072C191.577 105.072 191.129 105.189 190.713 105.424C190.307 105.659 189.982 106 189.737 106.448C189.491 106.896 189.369 107.445 189.369 108.096C189.369 108.768 189.502 109.328 189.769 109.776C190.035 110.224 190.398 110.565 190.857 110.8C191.315 111.024 191.833 111.136 192.409 111.136C192.878 111.136 193.299 111.072 193.673 110.944C194.057 110.805 194.425 110.624 194.777 110.4L195.257 111.264C194.873 111.52 194.43 111.739 193.929 111.92C193.438 112.101 192.878 112.192 192.249 112.192ZM198.899 112V104.224H199.987L200.099 106.064H200.147C200.552 105.435 201.053 104.939 201.651 104.576C202.248 104.213 202.904 104.032 203.619 104.032C203.907 104.032 204.173 104.059 204.419 104.112C204.675 104.155 204.92 104.235 205.155 104.352L204.851 105.488C204.584 105.392 204.355 105.323 204.163 105.28C203.971 105.237 203.72 105.216 203.411 105.216C202.824 105.216 202.259 105.387 201.715 105.728C201.181 106.059 200.68 106.629 200.211 107.44V112H198.899Z" fill="#F8F8F2" style="fill:#F8F8F2;fill:color(display-p3 0.9725 0.9725 0.9490);fill-opacity:1;"/>
<path fill-rule="evenodd" clip-rule="evenodd" d="M124 102H133V111V112H134V111V102V101H133H124H123V102V111V112H124V111V102ZM132 112V111H131V112H132ZM129 111H130V112H129V111ZM128 112V111H127V112H128ZM125 111H126V112H125V111Z" fill="#CCCCCC" style="fill:#CCCCCC;fill:color(display-p3 0.8000 0.8000 0.8000);fill-opacity:1;"/>
<rect width="150" height="21" transform="translate(118 117)" fill="#21222C" style="fill:#21222C;fill:color(display-p3 0.1294 0.1333 0.1725);fill-opacity:1;"/>
<path d="M139.928 133V125.224H140.984L141.096 126.248H141.128C141.331 125.885 141.565 125.592 141.832 125.368C142.099 125.144 142.456 125.032 142.904 125.032C143.288 125.032 143.603 125.144 143.848 125.368C144.093 125.592 144.269 125.928 144.376 126.376C144.6 125.96 144.845 125.635 145.112 125.4C145.389 125.155 145.752 125.032 146.2 125.032C146.744 125.032 147.165 125.24 147.464 125.656C147.773 126.061 147.928 126.653 147.928 127.432V133H146.616V127.528C146.616 126.621 146.339 126.168 145.784 126.168C145.517 126.168 145.293 126.269 145.112 126.472C144.941 126.664 144.749 126.963 144.536 127.368V133H143.32V127.528C143.32 127.08 143.256 126.744 143.128 126.52C143.011 126.285 142.808 126.168 142.52 126.168C142.253 126.168 142.019 126.269 141.816 126.472C141.624 126.664 141.432 126.963 141.24 127.368V133H139.928ZM153.874 133.192C153.095 133.192 152.386 133.032 151.746 132.712C151.116 132.392 150.615 131.928 150.242 131.32C149.868 130.701 149.682 129.96 149.682 129.096C149.682 128.253 149.868 127.528 150.242 126.92C150.615 126.312 151.1 125.848 151.698 125.528C152.306 125.197 152.956 125.032 153.65 125.032C154.396 125.032 155.031 125.187 155.554 125.496C156.087 125.795 156.492 126.216 156.77 126.76C157.058 127.304 157.202 127.944 157.202 128.68C157.202 128.829 157.196 128.973 157.186 129.112C157.175 129.251 157.159 129.373 157.138 129.48H150.562V128.456H156.354L156.018 128.824C156.018 127.907 155.804 127.219 155.378 126.76C154.962 126.301 154.396 126.072 153.682 126.072C153.202 126.072 152.754 126.189 152.338 126.424C151.932 126.659 151.607 127 151.362 127.448C151.116 127.896 150.994 128.445 150.994 129.096C150.994 129.768 151.127 130.328 151.394 130.776C151.66 131.224 152.023 131.565 152.482 131.8C152.94 132.024 153.458 132.136 154.034 132.136C154.503 132.136 154.924 132.072 155.298 131.944C155.682 131.805 156.05 131.624 156.402 131.4L156.882 132.264C156.498 132.52 156.055 132.739 155.554 132.92C155.063 133.101 154.503 133.192 153.874 133.192ZM163.148 133.192C162.39 133.192 161.681 133.069 161.02 132.824C160.358 132.579 159.793 132.296 159.324 131.976L159.932 131.112C160.38 131.432 160.876 131.688 161.42 131.88C161.964 132.072 162.593 132.168 163.308 132.168C163.969 132.168 164.46 132.045 164.78 131.8C165.11 131.555 165.276 131.272 165.276 130.952C165.276 130.803 165.244 130.664 165.18 130.536C165.126 130.408 165.014 130.285 164.844 130.168C164.684 130.051 164.444 129.939 164.124 129.832C163.804 129.725 163.377 129.619 162.844 129.512C161.83 129.299 161.068 129.011 160.556 128.648C160.054 128.285 159.804 127.816 159.804 127.24C159.804 126.611 160.076 126.088 160.62 125.672C161.164 125.245 161.969 125.032 163.036 125.032C163.633 125.032 164.209 125.133 164.764 125.336C165.318 125.528 165.788 125.757 166.172 126.024L165.532 126.872C165.18 126.616 164.78 126.419 164.332 126.28C163.884 126.131 163.414 126.056 162.924 126.056C162.476 126.056 162.118 126.109 161.852 126.216C161.596 126.312 161.409 126.445 161.292 126.616C161.185 126.787 161.132 126.973 161.132 127.176C161.132 127.507 161.308 127.768 161.66 127.96C162.022 128.141 162.598 128.312 163.388 128.472C164.252 128.653 164.913 128.856 165.372 129.08C165.841 129.304 166.161 129.56 166.332 129.848C166.513 130.136 166.604 130.477 166.604 130.872C166.604 131.299 166.47 131.688 166.204 132.04C165.937 132.381 165.548 132.659 165.036 132.872C164.524 133.085 163.894 133.192 163.148 133.192ZM169.269 133V121.608H170.581V124.712L170.501 126.552H170.549C170.944 126.125 171.376 125.768 171.845 125.48C172.315 125.181 172.853 125.032 173.461 125.032C174.379 125.032 175.056 125.299 175.493 125.832C175.931 126.365 176.149 127.144 176.149 128.168V133H174.837V128.344C174.837 127.608 174.699 127.064 174.421 126.712C174.144 126.349 173.685 126.168 173.045 126.168C172.587 126.168 172.176 126.285 171.813 126.52C171.451 126.755 171.04 127.107 170.581 127.576V133H169.269ZM181.247 133V124.568C181.247 123.939 181.359 123.389 181.583 122.92C181.818 122.44 182.164 122.072 182.623 121.816C183.082 121.549 183.668 121.416 184.383 121.416C184.767 121.416 185.14 121.453 185.503 121.528C185.876 121.592 186.25 121.704 186.623 121.864L186.319 122.856C185.999 122.707 185.7 122.611 185.423 122.568C185.156 122.515 184.852 122.488 184.511 122.488C183.818 122.488 183.316 122.669 183.007 123.032C182.698 123.395 182.543 123.891 182.543 124.52V133H181.247ZM179.023 126.296V125.304L181.295 125.224H185.807V126.296H179.023ZM189.305 133V125.224H190.393L190.505 127.064H190.553C190.958 126.435 191.459 125.939 192.057 125.576C192.654 125.213 193.31 125.032 194.025 125.032C194.313 125.032 194.579 125.059 194.825 125.112C195.081 125.155 195.326 125.235 195.561 125.352L195.257 126.488C194.99 126.392 194.761 126.323 194.569 126.28C194.377 126.237 194.126 126.216 193.817 126.216C193.23 126.216 192.665 126.387 192.121 126.728C191.587 127.059 191.086 127.629 190.617 128.44V133H189.305ZM200.499 133.192C200.019 133.192 199.576 133.107 199.171 132.936C198.765 132.755 198.445 132.499 198.211 132.168C197.976 131.837 197.859 131.443 197.859 130.984C197.859 130.109 198.296 129.448 199.171 129C200.045 128.541 201.485 128.232 203.491 128.072C203.48 127.72 203.405 127.395 203.267 127.096C203.139 126.797 202.925 126.563 202.627 126.392C202.328 126.211 201.928 126.12 201.427 126.12C201.096 126.12 200.765 126.168 200.435 126.264C200.115 126.349 199.805 126.467 199.507 126.616C199.219 126.755 198.952 126.899 198.707 127.048L198.195 126.152C198.451 125.981 198.76 125.811 199.123 125.64C199.496 125.459 199.896 125.315 200.323 125.208C200.749 125.091 201.192 125.032 201.651 125.032C202.365 125.032 202.952 125.165 203.411 125.432C203.88 125.699 204.227 126.072 204.451 126.552C204.685 127.021 204.803 127.581 204.803 128.232V133H203.731L203.619 131.944H203.571C203.144 132.285 202.664 132.579 202.131 132.824C201.597 133.069 201.053 133.192 200.499 133.192ZM200.851 132.136C201.299 132.136 201.741 132.035 202.179 131.832C202.616 131.629 203.053 131.347 203.491 130.984V128.936C202.381 129.032 201.507 129.165 200.867 129.336C200.237 129.507 199.789 129.725 199.523 129.992C199.267 130.248 199.139 130.547 199.139 130.888C199.139 131.176 199.219 131.416 199.379 131.608C199.539 131.789 199.747 131.923 200.003 132.008C200.269 132.093 200.552 132.136 200.851 132.136ZM210.892 136.584C210.135 136.584 209.49 136.499 208.956 136.328C208.423 136.157 208.012 135.912 207.724 135.592C207.447 135.272 207.308 134.883 207.308 134.424C207.308 134.115 207.415 133.805 207.628 133.496C207.852 133.197 208.172 132.931 208.588 132.696V132.632C208.386 132.515 208.199 132.355 208.028 132.152C207.868 131.949 207.788 131.683 207.788 131.352C207.788 131.107 207.868 130.856 208.028 130.6C208.188 130.333 208.418 130.099 208.716 129.896V129.832C208.45 129.629 208.22 129.357 208.028 129.016C207.847 128.675 207.756 128.275 207.756 127.816C207.756 127.251 207.895 126.76 208.172 126.344C208.46 125.928 208.834 125.608 209.292 125.384C209.762 125.149 210.268 125.032 210.812 125.032C211.25 125.032 211.634 125.096 211.964 125.224H215.18V126.296H213.164C213.346 126.477 213.5 126.707 213.628 126.984C213.756 127.261 213.82 127.555 213.82 127.864C213.82 128.419 213.687 128.899 213.42 129.304C213.154 129.699 212.791 130.003 212.332 130.216C211.884 130.429 211.378 130.536 210.812 130.536C210.61 130.536 210.391 130.515 210.156 130.472C209.932 130.419 209.714 130.344 209.5 130.248C209.308 130.365 209.159 130.499 209.052 130.648C208.946 130.797 208.892 130.963 208.892 131.144C208.892 131.443 209.031 131.667 209.308 131.816C209.596 131.965 209.996 132.04 210.508 132.04H212.252C213.255 132.04 213.996 132.179 214.476 132.456C214.967 132.733 215.212 133.203 215.212 133.864C215.212 134.344 215.036 134.792 214.684 135.208C214.332 135.624 213.831 135.955 213.18 136.2C212.54 136.456 211.778 136.584 210.892 136.584ZM210.812 129.656C211.143 129.656 211.442 129.581 211.708 129.432C211.986 129.283 212.204 129.069 212.364 128.792C212.524 128.515 212.604 128.189 212.604 127.816C212.604 127.453 212.524 127.139 212.364 126.872C212.204 126.595 211.986 126.381 211.708 126.232C211.442 126.072 211.143 125.992 210.812 125.992C210.492 125.992 210.194 126.072 209.916 126.232C209.65 126.381 209.431 126.595 209.26 126.872C209.1 127.139 209.02 127.453 209.02 127.816C209.02 128.189 209.1 128.515 209.26 128.792C209.431 129.069 209.65 129.283 209.916 129.432C210.194 129.581 210.492 129.656 210.812 129.656ZM210.988 135.624C211.596 135.624 212.119 135.549 212.556 135.4C212.994 135.251 213.33 135.059 213.564 134.824C213.799 134.589 213.916 134.339 213.916 134.072C213.916 133.699 213.767 133.448 213.468 133.32C213.18 133.192 212.738 133.128 212.14 133.128H210.62C210.396 133.128 210.183 133.117 209.98 133.096C209.788 133.075 209.607 133.043 209.436 133C209.074 133.203 208.818 133.411 208.668 133.624C208.519 133.848 208.444 134.072 208.444 134.296C208.444 134.701 208.658 135.021 209.084 135.256C209.522 135.501 210.156 135.624 210.988 135.624Z" fill="#F8F8F2" style="fill:#F8F8F2;fill:color(display-p3 0.9725 0.9725 0.9490);fill-opacity:1;"/>
<path fill-rule="evenodd" clip-rule="evenodd" d="M124 123H133V132V133H134V132V123V122H133H124H123V123V132V133H124V132V123ZM132 133V132H131V133H132ZM129 132H130V133H129V132ZM128 133V132H127V133H128ZM125 132H126V133H125V132Z" fill="#CCCCCC" style="fill:#CCCCCC;fill:color(display-p3 0.8000 0.8000 0.8000);fill-opacity:1;"/>
<rect width="150" height="21" transform="translate(118 138)" fill="#21222C" style="fill:#21222C;fill:color(display-p3 0.1294 0.1333 0.1725);fill-opacity:1;"/>
<path d="M139.928 154V146.224H140.984L141.096 147.248H141.128C141.331 146.885 141.565 146.592 141.832 146.368C142.099 146.144 142.456 146.032 142.904 146.032C143.288 146.032 143.603 146.144 143.848 146.368C144.093 146.592 144.269 146.928 144.376 147.376C144.6 146.96 144.845 146.635 145.112 146.4C145.389 146.155 145.752 146.032 146.2 146.032C146.744 146.032 147.165 146.24 147.464 146.656C147.773 147.061 147.928 147.653 147.928 148.432V154H146.616V148.528C146.616 147.621 146.339 147.168 145.784 147.168C145.517 147.168 145.293 147.269 145.112 147.472C144.941 147.664 144.749 147.963 144.536 148.368V154H143.32V148.528C143.32 148.08 143.256 147.744 143.128 147.52C143.011 147.285 142.808 147.168 142.52 147.168C142.253 147.168 142.019 147.269 141.816 147.472C141.624 147.664 141.432 147.963 141.24 148.368V154H139.928ZM153.874 154.192C153.095 154.192 152.386 154.032 151.746 153.712C151.116 153.392 150.615 152.928 150.242 152.32C149.868 151.701 149.682 150.96 149.682 150.096C149.682 149.253 149.868 148.528 150.242 147.92C150.615 147.312 151.1 146.848 151.698 146.528C152.306 146.197 152.956 146.032 153.65 146.032C154.396 146.032 155.031 146.187 155.554 146.496C156.087 146.795 156.492 147.216 156.77 147.76C157.058 148.304 157.202 148.944 157.202 149.68C157.202 149.829 157.196 149.973 157.186 150.112C157.175 150.251 157.159 150.373 157.138 150.48H150.562V149.456H156.354L156.018 149.824C156.018 148.907 155.804 148.219 155.378 147.76C154.962 147.301 154.396 147.072 153.682 147.072C153.202 147.072 152.754 147.189 152.338 147.424C151.932 147.659 151.607 148 151.362 148.448C151.116 148.896 150.994 149.445 150.994 150.096C150.994 150.768 151.127 151.328 151.394 151.776C151.66 152.224 152.023 152.565 152.482 152.8C152.94 153.024 153.458 153.136 154.034 153.136C154.503 153.136 154.924 153.072 155.298 152.944C155.682 152.805 156.05 152.624 156.402 152.4L156.882 153.264C156.498 153.52 156.055 153.739 155.554 153.92C155.063 154.101 154.503 154.192 153.874 154.192ZM163.148 154.192C162.39 154.192 161.681 154.069 161.02 153.824C160.358 153.579 159.793 153.296 159.324 152.976L159.932 152.112C160.38 152.432 160.876 152.688 161.42 152.88C161.964 153.072 162.593 153.168 163.308 153.168C163.969 153.168 164.46 153.045 164.78 152.8C165.11 152.555 165.276 152.272 165.276 151.952C165.276 151.803 165.244 151.664 165.18 151.536C165.126 151.408 165.014 151.285 164.844 151.168C164.684 151.051 164.444 150.939 164.124 150.832C163.804 150.725 163.377 150.619 162.844 150.512C161.83 150.299 161.068 150.011 160.556 149.648C160.054 149.285 159.804 148.816 159.804 148.24C159.804 147.611 160.076 147.088 160.62 146.672C161.164 146.245 161.969 146.032 163.036 146.032C163.633 146.032 164.209 146.133 164.764 146.336C165.318 146.528 165.788 146.757 166.172 147.024L165.532 147.872C165.18 147.616 164.78 147.419 164.332 147.28C163.884 147.131 163.414 147.056 162.924 147.056C162.476 147.056 162.118 147.109 161.852 147.216C161.596 147.312 161.409 147.445 161.292 147.616C161.185 147.787 161.132 147.973 161.132 148.176C161.132 148.507 161.308 148.768 161.66 148.96C162.022 149.141 162.598 149.312 163.388 149.472C164.252 149.653 164.913 149.856 165.372 150.08C165.841 150.304 166.161 150.56 166.332 150.848C166.513 151.136 166.604 151.477 166.604 151.872C166.604 152.299 166.47 152.688 166.204 153.04C165.937 153.381 165.548 153.659 165.036 153.872C164.524 154.085 163.894 154.192 163.148 154.192ZM169.269 154V142.608H170.581V145.712L170.501 147.552H170.549C170.944 147.125 171.376 146.768 171.845 146.48C172.315 146.181 172.853 146.032 173.461 146.032C174.379 146.032 175.056 146.299 175.493 146.832C175.931 147.365 176.149 148.144 176.149 149.168V154H174.837V149.344C174.837 148.608 174.699 148.064 174.421 147.712C174.144 147.349 173.685 147.168 173.045 147.168C172.587 147.168 172.176 147.285 171.813 147.52C171.451 147.755 171.04 148.107 170.581 148.576V154H169.269ZM181.471 154L178.191 146.224H179.519L181.311 150.64C181.471 151.024 181.62 151.408 181.759 151.792C181.908 152.176 182.052 152.555 182.191 152.928H182.255C182.394 152.555 182.532 152.176 182.671 151.792C182.81 151.408 182.954 151.024 183.103 150.64L184.895 146.224H186.159L182.943 154H181.471ZM192.249 154.192C191.47 154.192 190.761 154.032 190.121 153.712C189.491 153.392 188.99 152.928 188.617 152.32C188.243 151.701 188.057 150.96 188.057 150.096C188.057 149.253 188.243 148.528 188.617 147.92C188.99 147.312 189.475 146.848 190.073 146.528C190.681 146.197 191.331 146.032 192.025 146.032C192.771 146.032 193.406 146.187 193.929 146.496C194.462 146.795 194.867 147.216 195.145 147.76C195.433 148.304 195.577 148.944 195.577 149.68C195.577 149.829 195.571 149.973 195.561 150.112C195.55 150.251 195.534 150.373 195.513 150.48H188.937V149.456H194.729L194.393 149.824C194.393 148.907 194.179 148.219 193.753 147.76C193.337 147.301 192.771 147.072 192.057 147.072C191.577 147.072 191.129 147.189 190.713 147.424C190.307 147.659 189.982 148 189.737 148.448C189.491 148.896 189.369 149.445 189.369 150.096C189.369 150.768 189.502 151.328 189.769 151.776C190.035 152.224 190.398 152.565 190.857 152.8C191.315 153.024 191.833 153.136 192.409 153.136C192.878 153.136 193.299 153.072 193.673 152.944C194.057 152.805 194.425 152.624 194.777 152.4L195.257 153.264C194.873 153.52 194.43 153.739 193.929 153.92C193.438 154.101 192.878 154.192 192.249 154.192ZM198.899 154V146.224H199.987L200.099 148.064H200.147C200.552 147.435 201.053 146.939 201.651 146.576C202.248 146.213 202.904 146.032 203.619 146.032C203.907 146.032 204.173 146.059 204.419 146.112C204.675 146.155 204.92 146.235 205.155 146.352L204.851 147.488C204.584 147.392 204.355 147.323 204.163 147.28C203.971 147.237 203.72 147.216 203.411 147.216C202.824 147.216 202.259 147.387 201.715 147.728C201.181 148.059 200.68 148.629 200.211 149.44V154H198.899ZM212.46 154.192C211.703 154.192 211.106 154.059 210.668 153.792C210.231 153.515 209.916 153.136 209.724 152.656C209.543 152.176 209.452 151.616 209.452 150.976V147.296H207.26V146.304L209.5 146.224L209.676 143.728H210.764V146.224H214.588V147.296H210.764V150.992C210.764 151.451 210.823 151.84 210.94 152.16C211.058 152.48 211.26 152.72 211.548 152.88C211.836 153.04 212.231 153.12 212.732 153.12C213.106 153.12 213.442 153.088 213.74 153.024C214.039 152.96 214.327 152.875 214.604 152.768L214.892 153.728C214.54 153.856 214.167 153.963 213.772 154.048C213.388 154.144 212.951 154.192 212.46 154.192Z" fill="#F8F8F2" style="fill:#F8F8F2;fill:color(display-p3 0.9725 0.9725 0.9490);fill-opacity:1;"/>
<path fill-rule="evenodd" clip-rule="evenodd" d="M124 144H133V153V154H134V153V144V143H133H124H123V144V153V154H124V153V144ZM132 154V153H131V154H132ZM129 153H130V154H129V153ZM128 154V153H127V154H128ZM125 153H126V154H125V153Z" fill="#CCCCCC" style="fill:#CCCCCC;fill:color(display-p3 0.8000 0.8000 0.8000);fill-opacity:1;"/>
</g>
<rect x="118" y="54" width="150" height="105" stroke="#4F5058" style="stroke:#4F5058;stroke:color(display-p3 0.3098 0.3137 0.3451);stroke-opacity:1;" stroke-width="2"/>
</g>
<defs>
<filter id="filter0_d_1_41" x="0" y="0" width="360" height="190" filterUnits="userSpaceOnUse" color-interpolation-filters="sRGB">
<feFlood flood-opacity="0" result="BackgroundImageFix"/>
<feColorMatrix in="SourceAlpha" type="matrix" values="0 0 0 0 0 0 0 0 0 0 0 0 0 0 0 0 0 0 127 0" result="hardAlpha"/>
<feOffset dy="2"/>
<feGaussianBlur stdDeviation="6"/>
<feComposite in2="hardAlpha" operator="out"/>
<feColorMatrix type="matrix" values="0 0 0 0 0 0 0 0 0 0 0 0 0 0 0 0 0 0 0.6 0"/>
<feBlend mode="normal" in2="BackgroundImageFix" result="effect1_dropShadow_1_41"/>
<feBlend mode="normal" in="SourceGraphic" in2="effect1_dropShadow_1_41" result="shape"/>
</filter>
<clipPath id="clip0_1_41">
<rect x="118" y="54" width="150" height="105" fill="white" style="fill:white;fill:white;fill-opacity:1;"/>
</clipPath>
</defs>
</svg>
